<svg width="18" height="18" viewBox="0 0 18 18" fill="none" xmlns="http://www.w3.org/2000/svg">
<path d="M13.0325 0H4.96721C2.22829 0 0 2.2284 0 4.96732V13.0326C0 15.7716 2.22829 17.9999 4.96721 17.9999H13.0325C15.7716 17.9999 17.9999 15.7715 17.9999 13.0326V4.96732C18 2.2284 15.7716 0 13.0325 0ZM16.403 13.0326C16.403 14.891 14.891 16.4029 13.0326 16.4029H4.96721C3.1089 16.403 1.59704 14.891 1.59704 13.0326V4.96732C1.59704 3.10901 3.1089 1.59704 4.96721 1.59704H13.0325C14.8909 1.59704 16.4029 3.10901 16.4029 4.96732V13.0326H16.403Z" fill="#263238"/>
<path d="M8.99993 4.36203C6.44244 4.36203 4.36182 6.44265 4.36182 9.00015C4.36182 11.5575 6.44244 13.6381 8.99993 13.6381C11.5574 13.6381 13.6381 11.5575 13.6381 9.00015C13.6381 6.44265 11.5574 4.36203 8.99993 4.36203ZM8.99993 12.0409C7.32315 12.0409 5.95885 10.6768 5.95885 9.00004C5.95885 7.32315 7.32304 5.95896 8.99993 5.95896C10.6768 5.95896 12.041 7.32315 12.041 9.00004C12.041 10.6768 10.6767 12.0409 8.99993 12.0409Z" fill="#263238"/>
<path d="M13.8326 3.00787C13.5249 3.00787 13.2226 3.13244 13.0053 3.3507C12.787 3.5679 12.6614 3.87027 12.6614 4.17903C12.6614 4.48684 12.7871 4.7891 13.0053 5.00736C13.2225 5.22456 13.5249 5.3502 13.8326 5.3502C14.1414 5.3502 14.4427 5.22456 14.6609 5.00736C14.8792 4.7891 15.0037 4.48673 15.0037 4.17903C15.0037 3.87027 14.8792 3.5679 14.6609 3.3507C14.4437 3.13244 14.1414 3.00787 13.8326 3.00787Z" fill="#263238"/>
</svg>
