<svg width="22" height="22" viewBox="0 0 22 22" fill="none" xmlns="http://www.w3.org/2000/svg">
<path d="M8.59999 16.9907C10.6465 16.9907 12.507 16.2651 13.9581 15.0372L20.4698 21.5488C20.6186 21.6977 20.8046 21.7721 21.0093 21.7721C21.2139 21.7721 21.4 21.6977 21.5488 21.5488C21.8465 21.2511 21.8465 20.7674 21.5488 20.4698L15.0372 13.9581C16.2465 12.507 16.9907 10.6279 16.9907 8.59999C16.9907 3.96743 13.2325 0.20929 8.59999 0.20929C3.98603 0.20929 0.20929 3.98603 0.20929 8.59999C0.20929 13.2325 3.98603 16.9907 8.59999 16.9907ZM8.59999 1.73487C12.3953 1.73487 15.4651 4.82324 15.4651 8.59999C15.4651 12.3953 12.3953 15.4651 8.59999 15.4651C4.80464 15.4651 1.73487 12.3767 1.73487 8.59999C1.73487 4.82324 4.82324 1.73487 8.59999 1.73487Z" fill="black"/>
</svg>
